<svg width="228" height="64" viewBox="0 0 228 64" fill="none" xmlns="http://www.w3.org/2000/svg">
<path fill-rule="evenodd" clip-rule="evenodd" d="M38 0H25.1323V23.247H12.4657V0H0V63H12.4657V38.505H25.1323V63H37.933L38 0Z" fill="#A0A8CA"/>
<path fill-rule="evenodd" clip-rule="evenodd" d="M61.5006 30.7214L68.7356 0H85V63H73.5151V18.5776H73.3824L66.0147 63H56.9866L49.6176 18.5776H49.4836V63H38V0H54.2644L61.5006 30.7214Z" fill="#2F5793"/>
<path fill-rule="evenodd" clip-rule="evenodd" d="M116 47.9493H97.6418V37.7773H112.502V23.6636H97.6418V14.5303H116V0H85V63H116V47.9493Z" fill="#7A88B5"/>
<path fill-rule="evenodd" clip-rule="evenodd" d="M133.743 62.3756V61.2325H130.241V5.15355L147.95 63H149.634V2.14311H153V1H145.259V2.14311H148.759V47.3175L134.553 1H126V2.14311H129.368V61.2325H126V62.3756H133.743Z" fill="#AEB3B6" stroke="#AEB3B6" stroke-width="2" stroke-miterlimit="2.613"/>
<path fill-rule="evenodd" clip-rule="evenodd" d="M165.73 22C152.691 22 152.691 63 166.131 63C170.612 63 173.688 59.1104 175.226 52.3814C175.494 50.9112 174.758 50.5942 174.489 52.0684C172.952 58.5853 170.077 61.8448 166.131 61.9479C162.254 62.0568 160.647 57.4282 160.647 47.5467V42.71H175.159C175.159 42.605 176.428 22 165.73 22ZM165.73 23.0502C169.543 23.0502 170.811 27.0447 170.811 34.6139V41.6559H160.647V34.6139C160.647 27.1517 162.453 23.0502 165.73 23.0502ZM179.773 23.9973L187.329 62.6869H187.929L192.812 37.3482L198.296 62.6869H198.831L205.114 23.9973H208.66V22.9471H199.766V23.9973H204.245L199.833 51.3313L194.416 26.0996H194.15L189.268 51.3313L184.119 23.9973H188.265V22.9471H176.696V23.9973H179.773ZM225.041 23.3652L223.772 25.5725C223.772 25.4675 222.033 22.103 218.422 22.103C209.327 22.208 208.928 39.4486 215.814 43.5482C217.419 44.4973 220.228 45.8625 221.231 46.8096C226.044 51.3293 225.31 61.5278 218.891 61.5278C213.809 61.5278 211.336 52.0664 211.336 51.9614H211.001V62.0549H211.402L213.141 58.7934C213.141 58.7934 215.681 62.6869 218.957 62.6869C228.921 62.6869 228.855 44.1803 222.97 39.9776C221.499 39.0305 218.356 37.3502 216.55 36.1931C211.468 33.2506 211.534 23.1572 218.422 23.1572C223.169 23.1572 225.108 30.8333 225.041 31.5684H225.31V23.3652H225.041Z" fill="#AEB3B6" stroke="#AEB3B6" stroke-width="2" stroke-miterlimit="2.613"/>
</svg>
